<?xml version="1.0" encoding="UTF-8" standalone="no"?>
<!-- Created with Inkscape (http://www.inkscape.org/) -->
<svg xmlns:dc="http://purl.org/dc/elements/1.1/" xmlns:cc="http://creativecommons.org/ns#" xmlns:rdf="http://www.w3.org/1999/02/22-rdf-syntax-ns#" xmlns:svg="http://www.w3.org/2000/svg" xmlns="http://www.w3.org/2000/svg" xmlns:xlink="http://www.w3.org/1999/xlink" xmlns:sodipodi="http://sodipodi.sourceforge.net/DTD/sodipodi-0.dtd" xmlns:inkscape="http://www.inkscape.org/namespaces/inkscape" width="800" height="490" id="svg2604" sodipodi:version="0.32" inkscape:version="0.46" version="1.0" sodipodi:docname="pasivo.svg" inkscape:output_extension="org.inkscape.output.svg.inkscape">
  <defs id="defs2606">
    <linearGradient y2="199.20726" y1="85.529762" xlink:href="#linearGradient2984" x2="61.891071" x1="59.820393" id="linearGradient1871" gradientUnits="userSpaceOnUse" gradientTransform="matrix(1.482959,0,0,0.8686251,19.841479,-122.02814)"/>
    <linearGradient y2="437.71384" y1="462.63409" xlink:href="#linearGradient2984" x2="39.178116" x1="44.634335" id="linearGradient1986" gradientUnits="userSpaceOnUse" gradientTransform="matrix(2.5926724,0,0,0.496837,19.841479,-122.02814)"/>
    <linearGradient y2="77.001305" y1="167.85587" xlink:href="#linearGradient2991" x2="48.997128" x1="52.874111" id="linearGradient1985" gradientUnits="userSpaceOnUse" gradientTransform="matrix(1.187994,0,0,1.0842949,19.841479,-122.02814)"/>
    <linearGradient y2="79.391563" y1="176.59102" xlink:href="#linearGradient2979" x2="69.298241" x1="79.259674" id="linearGradient1984" gradientUnits="userSpaceOnUse" gradientTransform="matrix(1.1530667,0,0,1.1171384,19.841479,-122.02814)"/>
    <linearGradient y2="100.41222" y1="65.556458" xlink:href="#linearGradient2979" x2="99.187386" x1="131.51102" id="linearGradient1983" gradientUnits="userSpaceOnUse" gradientTransform="matrix(1.1528988,0,0,1.1173007,19.841479,-122.02814)"/>
    <linearGradient y2="79.391563" y1="176.59102" xlink:href="#linearGradient2979" x2="69.298241" x1="79.259674" id="linearGradient1982" gradientUnits="userSpaceOnUse" gradientTransform="matrix(1.1530667,0,0,1.1171384,17.713428,-121.31879)"/>
    <linearGradient y2="172.33038" y1="210.65846" xlink:href="#linearGradient2979" x2="79.453842" x1="85.997665" id="linearGradient1981" gradientUnits="userSpaceOnUse" gradientTransform="matrix(1.1349607,0,0,1.1349607,19.841479,-122.02814)"/>
    <linearGradient y2="125.2625" y1="166.56679" xlink:href="#linearGradient3000" x2="256.74417" x1="271.4765" id="linearGradient1923" gradientUnits="userSpaceOnUse" gradientTransform="matrix(0.8717803,0,0,1.4775928,11.651266,-122.02814)"/>
    <linearGradient y2="190.33418" y1="158.70644" xlink:href="#linearGradient2979" x2="122.9226" x1="121.56956" id="linearGradient1922" gradientUnits="userSpaceOnUse" gradientTransform="matrix(1.8234029,0,0,0.706446,19.841479,-122.02814)"/>
    <linearGradient y2="160.49329" y1="128.38135" xlink:href="#linearGradient2979" x2="123.6971" x1="122.32335" id="linearGradient1921" gradientUnits="userSpaceOnUse" gradientTransform="matrix(1.8139816,0,0,0.7101154,19.841479,-122.02814)"/>
    <linearGradient y2="147.83969" y1="50.769344" xlink:href="#linearGradient2984" x2="231.59184" x1="233.42126" id="linearGradient1920" gradientUnits="userSpaceOnUse" gradientTransform="matrix(0.9621254,0,0,1.3388439,19.841479,-122.02814)"/>
    <linearGradient y2="76.863205" y1="200.60095" xlink:href="#linearGradient3000" x2="139.02554" x1="146.52391" id="linearGradient1919" gradientUnits="userSpaceOnUse" gradientTransform="matrix(0.9957147,0,0,1.5368389,8.5489882,-140.11372)"/>
    <linearGradient y2="76.863205" y1="200.60095" xlink:href="#linearGradient3000" x2="139.02554" x1="146.52391" id="linearGradient1918" gradientUnits="userSpaceOnUse" gradientTransform="matrix(0.9263913,0,0,1.3904891,19.841479,-122.02814)"/>
    <linearGradient y2="73.230858" y1="198.10153" xlink:href="#linearGradient2979" x2="171.147" x1="216.47505" id="linearGradient1917" gradientUnits="userSpaceOnUse" gradientTransform="matrix(1.1092595,0,0,1.1612577,19.841479,-122.02814)"/>
    <linearGradient y2="716.89569" y1="704.06665" xlink:href="#linearGradient2984" x2="129.54399" x1="129.28658" id="linearGradient1962" gradientUnits="userSpaceOnUse" gradientTransform="matrix(1.5541085,0,0,0.8288584,6.7091905,-124.83321)"/>
    <linearGradient y2="298.52386" y1="270.24692" xlink:href="#linearGradient2979" x2="180.98833" x1="177.20853" id="linearGradient1961" gradientUnits="userSpaceOnUse" gradientTransform="matrix(1.5175923,0,0,0.8488019,19.841479,-122.02814)"/>
    <linearGradient id="linearGradient2984">
      <stop style="stop-color:#ffffff;stop-opacity:1.0000000;" offset="0.00000000" id="stop2985"/>
      <stop style="stop-color:#ffffff;stop-opacity:0.00000000;" offset="1.0000000" id="stop2986"/>
    </linearGradient>
    <linearGradient y2="522.2951" y1="404.27759" xlink:href="#linearGradient2984" x2="87.982124" x1="52.588963" id="linearGradient1960" gradientUnits="userSpaceOnUse" gradientTransform="matrix(2.2298981,0,0,0.5776655,19.841479,-122.02814)"/>
    <linearGradient y2="390.88043" y1="438.16623" xlink:href="#linearGradient2979" x2="65.910606" x1="95.44516" id="linearGradient1959" gradientUnits="userSpaceOnUse" gradientTransform="matrix(2.0217758,0,0,0.6371306,19.841479,-122.02814)"/>
    <linearGradient y2="1005.4645" y1="1036.9353" xlink:href="#linearGradient2991" x2="91.326256" x1="97.777306" id="linearGradient1958" gradientUnits="userSpaceOnUse" gradientTransform="matrix(2.1893619,0,0,0.5883613,6.7091905,-125.20837)"/>
    <linearGradient id="linearGradient2979">
      <stop style="stop-color:#dee5f4;stop-opacity:1.0000000;" offset="0.00000000" id="stop2980"/>
      <stop style="stop-color:#747a92;stop-opacity:1.0000000;" offset="1.0000000" id="stop2981"/>
    </linearGradient>
    <linearGradient y2="1019.9909" y1="991.43304" xlink:href="#linearGradient2979" x2="89.493149" x1="111.28992" id="linearGradient1957" gradientUnits="userSpaceOnUse" gradientTransform="matrix(2.1628764,0,0,0.5955661,6.7091905,-125.09749)"/>
    <linearGradient y2="1007.7199" y1="1007.7199" xlink:href="#linearGradient2991" x2="112.30373" x1="80.622375" id="linearGradient1956" gradientUnits="userSpaceOnUse" gradientTransform="matrix(2.1628764,0,0,0.5955661,6.7091905,-125.09749)"/>
    <radialGradient xlink:href="#linearGradient3000" r="48.549095" id="radialGradient1955" gradientUnits="userSpaceOnUse" gradientTransform="matrix(2.1645823,0,0,0.5950962,12.377968,-148.56623)" fy="1017.3969" fx="75.537109" cy="1017.3969" cx="75.537109"/>
    <radialGradient xlink:href="#linearGradient3000" r="31.845842" id="radialGradient1908" gradientUnits="userSpaceOnUse" gradientTransform="matrix(2.4487741,0,0,0.5260327,3.3985213,-125.87468)" fy="1101.0496" fx="48.594395" cy="1101.0496" cx="48.594395"/>
    <linearGradient id="linearGradient3000">
      <stop style="stop-color:#000000;stop-opacity:0.39215687;" offset="0.00000000" id="stop3001"/>
      <stop style="stop-color:#000000;stop-opacity:0.00000000;" offset="1.0000000" id="stop3002"/>
    </linearGradient>
    <radialGradient xlink:href="#linearGradient3000" r="31.845842" id="radialGradient1971" gradientUnits="userSpaceOnUse" gradientTransform="matrix(2.4487741,0,0,0.5260327,60.391764,-174.56059)" fy="1101.0496" fx="48.594395" cy="1101.0496" cx="48.594395"/>
    <linearGradient id="linearGradient2991">
      <stop style="stop-color:#fff700;stop-opacity:1.0000000;" offset="0.00000000" id="stop2992"/>
      <stop style="stop-color:#ff8e00;stop-opacity:1.0000000;" offset="1.0000000" id="stop2993"/>
    </linearGradient>
    <radialGradient inkscape:collect="always" xlink:href="#linearGradient2991" id="radialGradient82043" cx="71.127533" cy="60.982872" fx="71.127533" fy="60.982872" r="58.687614" gradientTransform="matrix(1,0,0,0.6712653,7.1928355e-7,20.047182)" gradientUnits="userSpaceOnUse"/>
    <marker inkscape:stockid="TriangleOutL" orient="auto" refY="0.0" refX="0.0" id="TriangleOutL" style="overflow:visible">
      <path id="path5178" d="M 5.77,0.0 L -2.88,5.0 L -2.88,-5.0 L 5.77,0.0 z " style="fill-rule:evenodd;stroke:#000000;stroke-width:1.0pt;marker-start:none" transform="scale(0.8)"/>
    </marker>
    <inkscape:perspective sodipodi:type="inkscape:persp3d" inkscape:vp_x="0 : 526.18109 : 1" inkscape:vp_y="0 : 1000 : 0" inkscape:vp_z="744.09448 : 526.18109 : 1" inkscape:persp3d-origin="372.04724 : 350.78739 : 1" id="perspective2612"/>
  </defs>
  <sodipodi:namedview id="base" pagecolor="#ffffff" bordercolor="#666666" borderopacity="1.0" inkscape:pageopacity="0.0" inkscape:pageshadow="2" inkscape:zoom="0.7" inkscape:cx="193.52504" inkscape:cy="243.79331" inkscape:document-units="px" inkscape:current-layer="layer1" showgrid="false" inkscape:window-width="1019" inkscape:window-height="722" inkscape:window-x="-5" inkscape:window-y="25"/>
  <metadata id="metadata2609">
    <rdf:RDF>
      <cc:Work rdf:about="">
        <dc:format>image/svg+xml</dc:format>
        <dc:type rdf:resource="http://purl.org/dc/dcmitype/StillImage"/>
      </cc:Work>
    </rdf:RDF>
  </metadata>
  <g inkscape:label="Capa 1" inkscape:groupmode="layer" id="layer1">
    <path style="fill:#008000;fill-opacity:1;fill-rule:evenodd;stroke:#379220;stroke-width:2;stroke-linecap:butt;stroke-linejoin:miter;stroke-miterlimit:4;stroke-dasharray:none;stroke-opacity:1" d="M 731.3617,131.38645 L 731.3617,493.71057" id="path4888"/>
    <path style="fill:#008000;fill-opacity:1;fill-rule:evenodd;stroke:#379220;stroke-width:2;stroke-linecap:butt;stroke-linejoin:miter;stroke-miterlimit:4;stroke-dasharray:none;stroke-opacity:1" d="M 638.06965,129.18355 L 638.06965,493.56471" id="path4874"/>
    <rect style="opacity:1;fill:#ffffff;fill-opacity:1;stroke:#000000;stroke-width:2;stroke-miterlimit:4;stroke-dasharray:none;stroke-opacity:1" id="rect52641" width="138.11098" height="58.767288" x="491.13483" y="162.1427"/>
    <path style="fill:#008000;fill-opacity:1;fill-rule:evenodd;stroke:#379220;stroke-width:2;stroke-linecap:butt;stroke-linejoin:miter;stroke-miterlimit:4;stroke-dasharray:none;stroke-opacity:1" d="M 167.46172,107.41437 L 167.46172,493.62034" id="path3325"/>
    <rect style="fill:#ffffff;fill-opacity:1;stroke:#000000;stroke-width:2;stroke-miterlimit:4;stroke-dasharray:none;stroke-opacity:1" id="rect3333" width="224.50616" height="114.80804" x="128.09906" y="16.185816"/>
    <rect style="fill:#ffffff;fill-opacity:1;stroke:#000000;stroke-width:2;stroke-miterlimit:4;stroke-dasharray:none;stroke-opacity:1" id="rect4789" width="330.29422" height="114.71388" x="444.83435" y="15.136008"/>
    <g id="g52605" transform="matrix(0.2993392,0,0,0.2996971,199.19611,48.361038)">
      <path transform="matrix(0.940119,-0.124165,0.376587,0.821327,-213.4198,-213.7047)" style="fill:url(#radialGradient1971);fill-opacity:1;fill-rule:evenodd;stroke:none;stroke-width:0.37295571;stroke-linecap:butt;stroke-linejoin:miter;stroke-miterlimit:4;stroke-opacity:1" id="path2998" d="M 173.55663,510.3158 C 173.56456,518.4687 142.79968,525.07883 104.84653,525.07883 C 66.893375,525.07883 36.128491,518.4687 36.136421,510.3158 C 36.128491,502.1629 66.893375,495.55277 104.84653,495.55277 C 142.79968,495.55277 173.56456,502.1629 173.55663,510.3158 L 173.55663,510.3158 z"/>
      <path transform="matrix(1.711735,0.102817,-0.102817,1.711735,-8.017553,-689.7307)" style="fill:url(#radialGradient1908);fill-opacity:1;fill-rule:evenodd;stroke:none;stroke-width:0.19681364;stroke-linecap:butt;stroke-linejoin:miter;stroke-miterlimit:4;stroke-opacity:1" id="path3009" d="M 173.55663,510.3158 C 173.56456,518.4687 142.79968,525.07883 104.84653,525.07883 C 66.893375,525.07883 36.128491,518.4687 36.136421,510.3158 C 36.128491,502.1629 66.893375,495.55277 104.84653,495.55277 C 142.79968,495.55277 173.56456,502.1629 173.55663,510.3158 L 173.55663,510.3158 z"/>
      <g transform="translate(0,-75)" id="g1942">
        <path style="fill:none;fill-opacity:0.75;fill-rule:evenodd;stroke:#000000;stroke-width:2.12805128;stroke-linecap:butt;stroke-linejoin:round;stroke-miterlimit:4;stroke-opacity:0.19607843" id="path1941" d="M 223.80016,284.71299 C 212.28747,283.7536 204.61235,288.31068 194.05907,288.07085 C 183.50578,287.831 173.2723,285.35258 160.48045,285.19268 C 147.6886,285.03279 141.13277,292.94773 119.2267,288.55054 C 114.10756,287.52298 134.17719,281.27517 129.77997,277.03787 C 125.38276,272.80056 102.27747,273.12036 89.0059,264.0861 C 83.433558,260.29287 100.51859,256.25107 101.47798,248.25617"/>
        <path style="fill:none;fill-opacity:0.75;fill-rule:evenodd;stroke:#000000;stroke-width:2.12805128;stroke-linecap:butt;stroke-linejoin:round;stroke-miterlimit:4;stroke-opacity:0.19607843" id="path1940" d="M 81.81048,305.81956 C 74.135374,302.7815 51.676082,297.00609 49.670926,293.82719 C 46.393013,288.6305 80.370666,292.60446 61.663298,283.2739 C 53.558269,279.2314 22.328324,281.11526 27.604963,277.51755 C 32.881619,273.91984 79.176877,270.35622 90.6096,265.07958 C 102.04233,259.80295 96.259524,250.45596 99.593287,242.46575"/>
        <path transform="matrix(1.606958,-0.180571,0.108339,1.105737,-118.8948,-254.5933)" style="fill:url(#radialGradient1955);fill-opacity:1;fill-rule:evenodd;stroke:none;stroke-width:0.25180706;stroke-linecap:butt;stroke-linejoin:miter;stroke-miterlimit:4;stroke-opacity:1" id="path3228" d="M 236.65561,533.45416 C 236.65561,547.51305 195.20067,558.91002 144.0634,558.91002 C 92.926135,558.91002 51.471191,547.51305 51.471191,533.45416 C 51.471191,519.39527 92.926135,507.9983 144.0634,507.9983 C 195.20067,507.9983 236.65561,519.39527 236.65561,533.45416 z"/>
        <path transform="matrix(1.71482,0,0,1.71482,-61.76929,-610.3221)" style="fill:url(#linearGradient1956);fill-opacity:1;fill-rule:evenodd;stroke:url(#linearGradient1957);stroke-width:1.24097633;stroke-linecap:round;stroke-linejoin:bevel;stroke-miterlimit:4;stroke-opacity:1" id="path3141" d="M 187.375,521.03125 L 154.1875,525.375 L 180.375,536.5625 L 213.46875,528.84375 L 187.375,521.03125 z"/>
        <path transform="matrix(1.71482,0,0,1.71482,-61.76929,-611.731)" style="fill:url(#linearGradient1958);fill-opacity:1;fill-rule:evenodd;stroke:#000000;stroke-width:0.62048817;stroke-linecap:round;stroke-linejoin:bevel;stroke-miterlimit:4;stroke-opacity:1" id="path3140" d="M 187.375,521.03125 L 154.1875,525.375 L 180.375,536.5625 L 213.46875,528.84375 L 187.375,521.03125 z"/>
        <path transform="translate(0,75)" style="fill:none;fill-opacity:0.75;fill-rule:evenodd;stroke:#484c5f;stroke-width:2.12805128;stroke-linecap:butt;stroke-linejoin:round;stroke-miterlimit:4;stroke-opacity:1" id="path3230" d="M 225.56792,208.82911 C 214.05523,207.86972 206.38011,212.4268 195.82683,212.18697 C 185.27354,211.94712 175.04006,209.4687 162.24821,209.3088 C 149.45636,209.14891 142.90053,217.06385 120.99446,212.66666 C 115.87532,211.6391 135.94495,205.39129 131.54773,201.15399 C 127.15052,196.91668 104.04523,197.23648 90.773666,188.20222 C 85.201324,184.40899 102.28635,180.36719 103.24574,172.37229"/>
        <path transform="translate(0,75)" style="fill:none;fill-opacity:0.75;fill-rule:evenodd;stroke:#484c5f;stroke-width:2.12805128;stroke-linecap:butt;stroke-linejoin:round;stroke-miterlimit:4;stroke-opacity:1" id="path3231" d="M 83.578246,229.93568 C 75.90314,226.89762 53.443848,221.12221 51.438692,217.94331 C 48.160779,212.74662 82.138432,216.72058 63.431064,207.39002 C 55.326035,203.34752 24.09609,205.23138 29.372729,201.63367 C 34.649385,198.03596 80.944643,194.47234 92.377366,189.1957 C 103.81009,183.91907 98.02729,174.57208 101.36105,166.58187"/>
        <path transform="translate(0,75)" style="fill:url(#linearGradient1959);fill-opacity:1;fill-rule:evenodd;stroke:#000000;stroke-width:1.06402564;stroke-linecap:butt;stroke-linejoin:miter;stroke-miterlimit:4;stroke-opacity:1" id="path3010" d="M 64.332013,228.80006 L 66.07758,245.74808 L 104.14751,265.2788 L 229.7783,242.95796 L 230.73004,234.96681 L 179.05718,213.48313 L 64.332013,228.80006 z"/>
        <path transform="translate(0,75)" style="fill:#000000;fill-opacity:0.19607843;fill-rule:evenodd;stroke:none;stroke-width:0.33750001;stroke-linecap:butt;stroke-linejoin:miter;stroke-miterlimit:4;stroke-opacity:1" id="path3013" d="M 66.307606,229.92236 L 67.744591,244.3762 L 104.32654,263.26882 L 228.31443,241.39634 L 228.8257,236.08479 L 104.45435,256.06195 L 66.307606,229.92236 z"/>
        <path transform="translate(0,75)" style="fill:url(#linearGradient1960);fill-opacity:1;fill-rule:evenodd;stroke:none;stroke-width:0.33750001;stroke-linecap:butt;stroke-linejoin:miter;stroke-miterlimit:4;stroke-opacity:1" id="path3014" d="M 70.98008,230.35875 L 102.40022,250.43272 C 104.29123,226.57669 218.77104,242.43223 204.51562,226.86763 L 179.20496,215.52147 L 70.98008,230.35875 z"/>
        <path transform="translate(0,75)" style="fill:url(#linearGradient1961);fill-opacity:1;fill-rule:evenodd;stroke:#000000;stroke-width:1.06402564;stroke-linecap:butt;stroke-linejoin:miter;stroke-miterlimit:4;stroke-opacity:1" id="path3135" d="M 260.74545,220.12719 C 254.28771,220.70079 248.99358,226.62915 235.69608,220.6369 C 222.73487,214.79621 223.78797,215.97811 224.46399,212.68891 C 225.05642,209.80642 229.06168,201.41171 243.93428,201.9238 C 258.72831,202.43317 267.60257,219.5181 260.74545,220.12719 z"/>
        <path transform="matrix(1.71482,0,0,1.71482,-61.76929,-606.9641)" style="fill:url(#linearGradient1962);fill-opacity:1;fill-rule:evenodd;stroke:none;stroke-width:0.19681366;stroke-linecap:butt;stroke-linejoin:miter;stroke-miterlimit:4;stroke-opacity:1" id="path3233" d="M 183.22627,519.18774 C 183.22627,521.04166 180.40833,522.54456 176.93224,522.54456 C 173.45614,522.54456 170.6382,521.04166 170.6382,519.18774 C 170.6382,517.33382 173.45614,515.83092 176.93224,515.83092 C 180.40833,515.83092 183.22627,517.33382 183.22627,519.18774 z"/>
      </g>
      <g transform="translate(0,75)" id="g1909">
        <path transform="translate(0,-75)" style="fill:url(#linearGradient1917);fill-opacity:1;fill-rule:evenodd;stroke:#000000;stroke-width:1.06402564;stroke-linecap:butt;stroke-linejoin:round;stroke-miterlimit:4;stroke-opacity:1" id="path352" d="M 168.65587,72.330023 L 225.20016,76.208843 L 221.7842,198.54725 L 169.31652,206.3112 L 98.77599,189.11266 L 97.260299,80.427198 L 168.65587,72.330023 z"/>
        <path transform="translate(0,-75)" style="fill:url(#linearGradient1918);fill-opacity:1;fill-rule:evenodd;stroke:none;stroke-width:0.33750001;stroke-linecap:butt;stroke-linejoin:miter;stroke-miterlimit:4;stroke-opacity:1" id="path353" d="M 102.89328,117.91922 L 103.78771,184.23132 L 163.02825,196.53147 L 162.56305,110.47038 C 143.29813,93.578327 122.7832,134.18627 102.89328,117.91922 z"/>
        <path transform="translate(0,-75)" style="fill:url(#linearGradient1919);fill-opacity:1;fill-rule:evenodd;stroke:none;stroke-width:0.33750001;stroke-linecap:butt;stroke-linejoin:miter;stroke-miterlimit:4;stroke-opacity:1" id="path1853" d="M 100.64328,114.39526 L 101.60464,187.68673 L 165.27825,201.28147 L 164.77824,106.16243 C 144.07169,87.49248 122.0216,132.37442 100.64328,114.39526 z"/>
        <path transform="translate(0,-75)" style="fill:url(#linearGradient1920);fill-opacity:1;fill-rule:evenodd;stroke:none;stroke-width:0.33750001;stroke-linecap:butt;stroke-linejoin:miter;stroke-miterlimit:4;stroke-opacity:1" id="path2987" d="M 171.34995,74.897795 L 170.47718,148.07984 C 199.80839,115.49146 198.7677,162.41452 220.58724,143.69744 L 223.20555,78.025935 L 171.34995,74.897795 z"/>
        <path transform="translate(0,-75)" style="fill:url(#linearGradient1921);fill-opacity:1;fill-rule:evenodd;stroke:#000000;stroke-width:1.41870081;stroke-linecap:butt;stroke-linejoin:bevel;stroke-miterlimit:4;stroke-opacity:0.39215686" id="path3005" d="M 177.48285,82.517255 L 177.04647,96.099986 L 218.00121,97.796509 L 218.02029,84.889915 L 177.48285,82.517255 z"/>
        <path transform="translate(0,-75)" style="fill:url(#linearGradient1922);fill-opacity:1;fill-rule:evenodd;stroke:#000000;stroke-width:1.41870081;stroke-linecap:butt;stroke-linejoin:bevel;stroke-miterlimit:4;stroke-opacity:0.39215686" id="path3008" d="M 177.47737,100.94619 L 177.04098,115.53709 L 217.59414,115.8921 L 217.58917,102.32423 L 177.47737,100.94619 z"/>
        <path transform="matrix(1.1995,0,0,1,-43.46294,-75)" style="fill:url(#linearGradient1923);fill-opacity:1;stroke:none;stroke-width:1pt;stroke-linecap:butt;stroke-linejoin:miter;stroke-opacity:1" id="path1823" d="M 217.5,164.375 C 217.5,181.6339 209.24525,195.625 199.0625,195.625 C 188.87975,195.625 180.625,181.6339 180.625,164.375 C 180.625,147.1161 188.87975,133.125 199.0625,133.125 C 209.24525,133.125 217.5,147.1161 217.5,164.375 z"/>
      </g>
      <g transform="translate(150,0)" id="g1972">
        <path transform="translate(-150,0)" style="fill:url(#linearGradient1981);fill-opacity:1;fill-rule:evenodd;stroke:#000000;stroke-width:1.06402564;stroke-linecap:butt;stroke-linejoin:round;stroke-miterlimit:4;stroke-opacity:1" id="path354" d="M 68.78151,152.51618 L 57.48664,192.42874 L 57.48664,198.50488 L 81.791181,210.65716 L 118.24798,206.8679 L 118.24798,200.79176 L 85.772016,191.81631 L 93.943443,149.8958 L 68.78151,152.51618 z"/>
        <path transform="translate(-150,0)" style="fill:#000000;fill-opacity:0.31097556;fill-rule:evenodd;stroke:none;stroke-width:0.33750001;stroke-linecap:butt;stroke-linejoin:miter;stroke-miterlimit:4;stroke-opacity:1" id="path355" d="M 68.77909,153.94752 L 73.98479,155.4786 L 62.65473,194.36829 L 80.721596,202.63617 L 81.027811,209.06673 L 58.06146,198.04291 L 58.36768,192.22476 L 68.77909,153.94752 z"/>
        <path transform="translate(-150,0)" style="fill:url(#linearGradient1982);fill-opacity:1;fill-rule:evenodd;stroke:url(#linearGradient1983);stroke-width:2.2699213;stroke-linecap:butt;stroke-linejoin:round;stroke-miterlimit:4;stroke-opacity:1" id="path1828" d="M 24.2993,63.8626 L 133.66972,66.312341 L 139.74585,163.53049 L 30.37544,175.68275 L 24.2993,63.8626 z"/>
        <path transform="translate(-150,0)" style="fill:url(#linearGradient1984);fill-opacity:1;fill-rule:evenodd;stroke:#000000;stroke-width:1.06402564;stroke-linecap:butt;stroke-linejoin:round;stroke-miterlimit:4;stroke-opacity:1" id="path356" d="M 26.1743,63.2376 L 135.54472,65.687341 L 141.62085,162.90549 L 32.25044,175.05775 L 26.1743,63.2376 z"/>
        <path transform="translate(-150,0)" style="fill:url(#linearGradient1985);fill-opacity:1;fill-rule:evenodd;stroke:#000000;stroke-width:2.12805128;stroke-linecap:round;stroke-linejoin:round;stroke-miterlimit:4;stroke-opacity:0.19607843" id="path357" d="M 35.99156,72.467003 L 41.23867,160.10315 L 132.18841,152.60794 L 128.69035,73.043542 L 35.99156,72.467003 z"/>
        <path transform="translate(-150,0)" style="fill:url(#linearGradient1986);fill-opacity:1;fill-rule:evenodd;stroke:none;stroke-width:0.33750001;stroke-linecap:butt;stroke-linejoin:miter;stroke-miterlimit:4;stroke-opacity:1" id="path361" d="M 64.18582,194.36829 L 84.089983,193.14341 L 112.12441,200.63026 L 82.547108,202.32994 L 64.18582,194.36829 z"/>
        <path transform="translate(-150,0)" style="fill:url(#linearGradient1871);fill-opacity:1;fill-rule:evenodd;stroke:none;stroke-width:0.33750001;stroke-linecap:butt;stroke-linejoin:miter;stroke-miterlimit:4;stroke-opacity:1" id="path3003" d="M 41.63693,76.16683 L 44.10554,124.30449 C 56.65425,96.738482 120.42637,148.78477 126.18643,111.96151 L 124.335,77.401123 L 41.63693,76.16683 z"/>
        <rect y="33.75" x="-85.625" width="6.875" style="fill:none;fill-opacity:0.75;stroke:none;stroke-width:2;stroke-linecap:butt;stroke-linejoin:miter;stroke-miterlimit:4;stroke-opacity:1" ry="2.1280513" rx="6.9973822" id="rect1924" height="1.875"/>
      </g>
    </g>
    <rect style="opacity:1;fill:#ffffff;fill-opacity:1;stroke:#000000;stroke-width:2.00020003;stroke-miterlimit:4;stroke-dasharray:none;stroke-opacity:1" id="rect52639" width="89.94516" height="54.844608" x="188.64676" y="147.31104"/>
    <rect style="opacity:1;fill:#ffffff;fill-opacity:1;stroke:#000000;stroke-width:2;stroke-miterlimit:4;stroke-dasharray:none;stroke-opacity:1" id="rect52643" width="152.41504" height="90.422646" x="9.4460821" y="217.54216"/>
    <rect style="opacity:1;fill:#ffffff;fill-opacity:1;stroke:#000000;stroke-width:1.99999988;stroke-miterlimit:4;stroke-dasharray:none;stroke-opacity:1" id="rect52645" width="82.320587" height="52.966209" x="643.2442" y="359.76553"/>
    <text xml:space="preserve" style="font-size:14px;font-style:normal;font-weight:normal;fill:#000000;fill-opacity:1;stroke:none;stroke-width:1px;stroke-linecap:butt;stroke-linejoin:miter;stroke-opacity:1;font-family:Bitstream Vera Sans" x="497.3649" y="177.9588" id="text52667"><tspan sodipodi:role="line" x="497.3649" y="177.9588" id="tspan2951">2.</tspan></text>
    <g id="g3785" transform="matrix(0.6903604,0,0,1,4.526806,111.1893)">
      <rect y="307.42825" x="6.6384978" height="25.479864" width="219.99541" id="rect52647" style="opacity:1;fill:#ffffff;fill-opacity:1;stroke:#000000;stroke-width:2.40708852;stroke-miterlimit:4;stroke-dasharray:none;stroke-opacity:1"/>
    </g>
    <text xml:space="preserve" style="font-size:14px;font-style:normal;font-weight:normal;fill:#000000;fill-opacity:1;stroke:none;stroke-width:1px;stroke-linecap:butt;stroke-linejoin:miter;stroke-opacity:1;font-family:Bitstream Vera Sans" x="11.655616" y="436.47882" id="text52679"><tspan sodipodi:role="line" id="tspan52681" x="11.655616" y="436.47882">5. Cerrar la conexion</tspan></text>
    <text xml:space="preserve" style="font-size:24.83278275px;font-style:normal;font-weight:normal;fill:#0000fd;fill-opacity:1;stroke:none;stroke-width:1px;stroke-linecap:butt;stroke-linejoin:miter;stroke-opacity:1;font-family:Bitstream Vera Sans" x="193.8092" y="47.131226" id="text52691"><tspan sodipodi:role="line" id="tspan52693" x="193.8092" y="47.131226">Cliente</tspan></text>
    <text xml:space="preserve" style="font-size:15px;font-style:normal;font-weight:normal;text-align:center;text-anchor:middle;fill:#ff0000;fill-opacity:1;stroke:none;stroke-width:1px;stroke-linecap:butt;stroke-linejoin:miter;stroke-opacity:1;font-family:Bitstream Vera Sans" x="487.16565" y="83.128113" id="text52695"><tspan sodipodi:role="line" id="tspan52697" x="487.16565" y="83.128113">Puerto de</tspan><tspan sodipodi:role="line" x="487.16565" y="101.87811" id="tspan52699">control</tspan><tspan sodipodi:role="line" x="487.16565" y="120.62811" id="tspan52701">21</tspan></text>
    <g inkscape:label="Layer 1" id="g2707" transform="matrix(-0.1068139,0,0,0.1068139,604.26607,36.933721)">
      <g transform="matrix(2.674162,0,0,2.674162,-826.248,-323.8239)" id="g6052">
        <path style="fill:#c7c7c7;fill-opacity:1;fill-rule:evenodd;stroke:#000000;stroke-width:6.11299896;stroke-linecap:butt;stroke-linejoin:miter;stroke-miterlimit:4;stroke-dasharray:none;stroke-opacity:1" sodipodi:nodetypes="czcczzz" id="path1306" d="M 362.77592,187.283 C 360.50343,190.98677 361.20593,367.68763 364.14011,374.65173 C 366.46268,380.1642 441.02381,442.12988 444.93699,443.78694 C 495.35017,443.444 529.34176,425.0858 534.99109,415.38735 C 537.14042,403.1889 535.31621,215.19709 533.25552,211.25359 C 531.47859,207.85312 436.04893,173.6386 432.71615,172.86054 C 429.71763,172.16052 365.30189,183.1661 362.77592,187.283 z"/>
        <path style="fill:#ffffff;fill-opacity:0.54385968;fill-rule:evenodd;stroke:none;stroke-width:0.25pt;stroke-linecap:butt;stroke-linejoin:miter;stroke-opacity:1" sodipodi:nodetypes="ccccccc" id="path2066" d="M 366.42857,190.93361 C 391.19048,201.4098 418.60601,218.30739 446.22506,231.64072 C 472.394,225.42153 510.2022,217.10972 529.24981,213.77639 C 504.726,221.39543 472.52022,228.51448 447.99641,236.13353 C 446.56784,293.51448 447.257,380.45861 445.82843,437.83956 C 445.11414,379.98242 443.14285,291.6479 442.42856,233.79075 C 415.99999,219.50504 390,206.64789 366.42857,190.93361 z"/>
        <path style="fill:#000000;fill-opacity:0.16228069;fill-rule:evenodd;stroke:none;stroke-width:0.25pt;stroke-linecap:butt;stroke-linejoin:miter;stroke-opacity:1" sodipodi:nodetypes="ccc" id="path4356" d="M 519.99794,379.97737 C 510.93834,392.99882 482.41849,399.43361 468.8726,394.16864 C 471.21835,393.5424 516.96143,380.96883 519.99794,379.97737 z"/>
        <g transform="translate(2.035534,15.20712)" id="g4374">
          <path style="fill:#ffffff;fill-opacity:0.39473685;fill-rule:evenodd;stroke:none;stroke-width:1.01199996;stroke-linecap:butt;stroke-linejoin:miter;stroke-miterlimit:4;stroke-dasharray:none;stroke-opacity:1" sodipodi:nodetypes="cccccc" id="path4362" d="M 471.29127,340.59039 L 513.55921,324.30516 C 517.9002,325.84805 517.04588,332.27818 517.04588,332.27818 L 510.46155,334.58088 C 510.46155,334.58088 501.26764,349.01224 484.93096,343.36795 C 484.93096,343.36795 472.7787,345.52605 471.29127,340.59039 z"/>
          <path style="fill:#606060;fill-opacity:1;fill-rule:evenodd;stroke:none;stroke-width:1.11199999;stroke-linecap:butt;stroke-linejoin:miter;stroke-miterlimit:4;stroke-dasharray:none;stroke-opacity:1" sodipodi:nodetypes="ccccccc" id="path2826" d="M 471.66824,335.10501 C 485.70133,331.45482 499.73443,327.80464 513.76752,324.15445 C 514.30594,326.13864 514.34437,328.99782 513.50779,330.48201 C 511.36566,331.50652 507.10221,332.35425 504.96008,333.37876 C 498.80357,339.27354 493.45917,339.80363 483.65919,338.95243 C 479.87505,339.74603 476.0909,340.36284 472.30676,341.15644 C 471.15285,338.85897 470.82215,337.90248 471.66824,335.10501 z"/>
        </g>
        <path style="fill:#ffffff;fill-opacity:0.40350874;fill-rule:evenodd;stroke:none;stroke-width:0.25pt;stroke-linecap:butt;stroke-linejoin:miter;stroke-opacity:1" sodipodi:nodetypes="ccccc" id="path4423" d="M 364.8671,189.69191 L 446.71991,235.61832 L 446.39149,441.00771 L 366.28132,373.53968 L 364.8671,189.69191 z"/>
        <path style="fill:#000000;fill-opacity:0.16228069;fill-rule:evenodd;stroke:none;stroke-width:0.25pt;stroke-linecap:butt;stroke-linejoin:miter;stroke-opacity:1" sodipodi:nodetypes="ccc" id="path5957" d="M 515.24794,392.97737 C 505.81506,405.42036 486.94113,407.56087 476.3726,403.76831 C 478.1563,403.29212 512.93901,393.73127 515.24794,392.97737 z"/>
        <path style="fill:#000000;fill-opacity:0.16228069;fill-rule:evenodd;stroke:none;stroke-width:0.25pt;stroke-linecap:butt;stroke-linejoin:miter;stroke-opacity:1" sodipodi:nodetypes="ccc" id="path5959" d="M 508.24794,405.72737 C 502.79158,413.09279 492.2492,415.37141 483.8726,412.49343 C 484.991,412.19485 506.80021,406.20008 508.24794,405.72737 z"/>
        <path style="fill:#fcfcfc;fill-opacity:0.44298245;fill-rule:evenodd;stroke:none;stroke-width:0.31200001;stroke-linecap:butt;stroke-linejoin:miter;stroke-miterlimit:4;stroke-dasharray:none;stroke-opacity:1" sodipodi:nodetypes="ccccccc" id="path5973" d="M 522.875,227.86218 L 527.04289,228.4302 L 527.79289,326.56929 L 463.46862,344.54896 L 461.88388,339.34073 L 523.68934,322.86218 L 522.875,227.86218 z"/>
        <path style="opacity:1;fill:#000000;fill-opacity:0.22745098;fill-rule:evenodd;stroke:none;stroke-width:2.61199999;stroke-linecap:butt;stroke-linejoin:miter;marker:none;marker-start:none;marker-mid:none;marker-end:none;stroke-miterlimit:4;stroke-dasharray:none;stroke-dashoffset:0;stroke-opacity:0.22807013;visibility:visible;display:inline;overflow:visible;font-family:Bitstream Vera Sans" sodipodi:nodetypes="cccc" id="path6026" d="M 462.21967,264.23013 L 462.31434,266.99086 L 522.7929,249.54632 L 462.21967,264.23013 z"/>
        <path style="opacity:1;fill:#000000;fill-opacity:0.22745098;fill-rule:evenodd;stroke:none;stroke-width:2.61199999;stroke-linecap:butt;stroke-linejoin:miter;marker:none;marker-start:none;marker-mid:none;marker-end:none;stroke-miterlimit:4;stroke-dasharray:none;stroke-dashoffset:0;stroke-opacity:0.22807013;visibility:visible;display:inline;overflow:visible;font-family:Bitstream Vera Sans" sodipodi:nodetypes="cccc" id="path6036" d="M 461.33579,284.2059 L 461.43046,286.96663 L 521.90902,269.52209 L 461.33579,284.2059 z"/>
        <path style="opacity:1;fill:#000000;fill-opacity:0.22745098;fill-rule:evenodd;stroke:none;stroke-width:2.61199999;stroke-linecap:butt;stroke-linejoin:miter;marker:none;marker-start:none;marker-mid:none;marker-end:none;stroke-miterlimit:4;stroke-dasharray:none;stroke-dashoffset:0;stroke-opacity:0.22807013;visibility:visible;display:inline;overflow:visible;font-family:Bitstream Vera Sans" sodipodi:nodetypes="cccc" id="path6038" d="M 462.21967,302.64613 L 462.31434,305.40686 L 522.7929,287.96232 L 462.21967,302.64613 z"/>
        <path style="opacity:1;fill:#000000;fill-opacity:0.22745098;fill-rule:evenodd;stroke:none;stroke-width:2.61199999;stroke-linecap:butt;stroke-linejoin:miter;marker:none;marker-start:none;marker-mid:none;marker-end:none;stroke-miterlimit:4;stroke-dasharray:none;stroke-dashoffset:0;stroke-opacity:0.22807013;visibility:visible;display:inline;overflow:visible;font-family:Bitstream Vera Sans" sodipodi:nodetypes="cccc" id="path6040" d="M 462.21967,320.79868 L 462.31434,323.55941 L 522.7929,306.11487 L 462.21967,320.79868 z"/>
        <path style="opacity:1;fill:none;fill-opacity:0.75;fill-rule:evenodd;stroke:#9e9e9e;stroke-width:2.61199999;stroke-linecap:butt;stroke-linejoin:miter;marker:none;marker-start:none;marker-mid:none;marker-end:none;stroke-miterlimit:4;stroke-dasharray:none;stroke-dashoffset:0;stroke-opacity:1;visibility:visible;display:inline;overflow:visible;font-family:Bitstream Vera Sans" sodipodi:nodetypes="ccc" id="path5988" d="M 522.55191,229.64344 L 462.03362,244.76045 L 462.53549,344.35813"/>
      </g>
    </g>
    <text xml:space="preserve" style="font-size:22.94303703px;font-style:normal;font-weight:normal;fill:#0000ff;fill-opacity:1;stroke:none;stroke-width:1px;stroke-linecap:butt;stroke-linejoin:miter;stroke-opacity:1;font-family:Bitstream Vera Sans" x="542.2984" y="40.549133" id="text80119"><tspan sodipodi:role="line" id="tspan80121" x="542.2984" y="40.549133">Servidor FTP</tspan></text>
    <path style="fill:none;fill-rule:evenodd;stroke:#000000;stroke-width:2;stroke-linecap:butt;stroke-linejoin:miter;marker-end:url(#TriangleOutL);stroke-miterlimit:4;stroke-dasharray:none;stroke-opacity:1" d="M 304.43701,143.42531 L 472.80457,178.52586" id="path80123" sodipodi:nodetypes="cc"/>
    <text xml:space="preserve" style="font-size:14px;font-style:normal;font-weight:normal;fill:#000000;fill-opacity:1;stroke:none;stroke-width:1px;stroke-linecap:butt;stroke-linejoin:miter;stroke-opacity:1;font-family:Bitstream Vera Sans" x="360.60468" y="77.948166" id="text81947" transform="matrix(0.9803176,0.1974269,-0.1974269,0.9803176,0,0)"><tspan sodipodi:role="line" id="tspan81949" x="360.60468" y="77.948166">IPCliente:1035</tspan></text>
    <text xml:space="preserve" style="font-size:14px;font-style:normal;font-weight:normal;fill:#000000;fill-opacity:1;stroke:none;stroke-width:1px;stroke-linecap:butt;stroke-linejoin:miter;stroke-opacity:1;font-family:Bitstream Vera Sans" x="293.76999" y="299.61438" id="text81951" transform="matrix(0.9852081,-0.171362,0.171362,0.9852081,0,0)"><tspan sodipodi:role="line" id="tspan81953" x="293.76999" y="299.61438">IPCliente:1035</tspan></text>
    <text xml:space="preserve" style="font-size:14px;font-style:normal;font-weight:normal;fill:#000000;fill-opacity:1;stroke:none;stroke-width:1px;stroke-linecap:butt;stroke-linejoin:miter;stroke-opacity:1;font-family:Bitstream Vera Sans" x="356.83237" y="94.744835" id="text81955" transform="matrix(0.9803176,0.1974269,-0.1974269,0.9803176,0,0)"><tspan sodipodi:role="line" id="tspan81957" x="356.83237" y="94.744835">IPServidorFTP:21</tspan></text>
    <text xml:space="preserve" style="font-size:14.00000381px;font-style:normal;font-weight:normal;fill:#000000;fill-opacity:1;stroke:none;stroke-width:1px;stroke-linecap:butt;stroke-linejoin:miter;stroke-opacity:1;font-family:Bitstream Vera Sans" x="290.7977" y="273.16556" id="text81959" transform="matrix(0.9857152,-0.168421,0.168421,0.9857152,0,0)"><tspan sodipodi:role="line" id="tspan81961" x="290.7977" y="273.16556">IPServidorFTP:21</tspan></text>
    <text xml:space="preserve" style="font-size:14.00000095px;font-style:normal;font-weight:normal;fill:#000000;fill-opacity:1;stroke:none;stroke-width:1px;stroke-linecap:butt;stroke-linejoin:miter;stroke-opacity:1;font-family:Bitstream Vera Sans" x="241.58301" y="519.1709" id="text81965" transform="matrix(0.979578,-0.2010645,0.2010645,0.979578,0,0)"><tspan sodipodi:role="line" x="241.58301" y="519.1709" id="tspan6363">IPCliente:1036</tspan></text>
    <text xml:space="preserve" style="font-size:13.99999905px;font-style:normal;font-weight:normal;fill:#000000;fill-opacity:1;stroke:none;stroke-width:1px;stroke-linecap:butt;stroke-linejoin:miter;stroke-opacity:1;font-family:Bitstream Vera Sans" x="221.01405" y="495.6279" id="text81971" transform="matrix(0.975506,-0.2199728,0.2199728,0.975506,0,0)"><tspan sodipodi:role="line" id="tspan81973" x="221.01405" y="495.6279">IPServidorFTP:2040</tspan></text>
    <text xml:space="preserve" style="font-size:38.43516541px;font-style:normal;font-weight:normal;fill:url(#radialGradient82043);fill-opacity:1;stroke:#000000;stroke-width:1px;stroke-linecap:butt;stroke-linejoin:miter;stroke-opacity:1;font-family:Bitstream Vera Sans" x="3.2883894" y="54.351383" id="text81995" transform="scale(0.9727798,1.0279819)"><tspan sodipodi:role="line" id="tspan81997" x="3.2883894" y="54.351383" style="fill:url(#radialGradient82043);fill-opacity:1;stroke:#000000;stroke-width:1;stroke-opacity:1">Modo </tspan><tspan sodipodi:role="line" x="3.2883894" y="102.39534" id="tspan81999" style="fill:url(#radialGradient82043);fill-opacity:1;stroke:#000000;stroke-width:1;stroke-opacity:1">Pasivo</tspan></text>
    <text xml:space="preserve" style="font-size:15px;font-style:normal;font-weight:normal;text-align:center;text-anchor:middle;fill:#008000;fill-opacity:1;stroke:none;stroke-width:1px;stroke-linecap:butt;stroke-linejoin:miter;stroke-opacity:1;font-family:Bitstream Vera Sans" x="636.87134" y="78.454826" id="text3745"><tspan sodipodi:role="line" x="639.25903" y="78.454826" id="tspan3751">Puerto </tspan><tspan sodipodi:role="line" x="639.25903" y="97.204826" id="tspan3761">de datos </tspan><tspan sodipodi:role="line" x="636.87134" y="115.95483" id="tspan4844">2040</tspan></text>
    <text xml:space="preserve" style="font-size:15px;font-style:normal;font-weight:normal;text-align:center;text-anchor:middle;fill:#ff0000;fill-opacity:1;stroke:none;stroke-width:1px;stroke-linecap:butt;stroke-linejoin:miter;stroke-opacity:1;font-family:Bitstream Vera Sans" x="311.16071" y="87.233932" id="text3773"><tspan sodipodi:role="line" id="tspan3775" x="311.16071" y="87.233932">Puerto de</tspan><tspan sodipodi:role="line" x="311.16071" y="105.98393" id="tspan3777">control</tspan><tspan sodipodi:role="line" x="311.16071" y="124.73393" id="tspan3779">1035</tspan></text>
    <rect style="opacity:1;fill:#ffffff;fill-opacity:1;stroke:#000000;stroke-width:2.00019979;stroke-miterlimit:4;stroke-dasharray:none;stroke-opacity:1" id="rect4846" width="58.180161" height="75.601295" x="739.18518" y="135.93103"/>
    <text xml:space="preserve" style="font-size:14px;font-style:normal;font-weight:normal;fill:#000000;fill-opacity:1;stroke:none;stroke-width:1px;stroke-linecap:butt;stroke-linejoin:miter;stroke-opacity:1;font-family:Bitstream Vera Sans" x="745.54962" y="152.66566" id="text4848"><tspan sodipodi:role="line" id="tspan4850" x="745.54962" y="152.66566">Este </tspan><tspan sodipodi:role="line" x="745.54962" y="170.16566" id="tspan4928">puerto </tspan><tspan sodipodi:role="line" x="745.54962" y="187.66566" id="tspan4930">no se </tspan><tspan sodipodi:role="line" x="745.54962" y="205.16566" id="tspan4852">utiliza</tspan></text>
    <text xml:space="preserve" style="font-size:13.99999714px;font-style:normal;font-weight:normal;fill:#000000;fill-opacity:1;stroke:none;stroke-width:1px;stroke-linecap:butt;stroke-linejoin:miter;stroke-opacity:1;font-family:Bitstream Vera Sans" x="390.58728" y="216.50697" id="text4854" transform="matrix(0.9795146,0.2013733,-0.2013733,0.9795146,0,0)"><tspan sodipodi:role="line" id="tspan4856" x="390.58728" y="216.50697">IPCliente:1036</tspan></text>
    <text xml:space="preserve" style="font-size:14px;font-style:normal;font-weight:normal;fill:#000000;fill-opacity:1;stroke:none;stroke-width:1px;stroke-linecap:butt;stroke-linejoin:miter;stroke-opacity:1;font-family:Bitstream Vera Sans" x="379.80441" y="239.51218" id="text4858" transform="matrix(0.9785051,0.2062225,-0.2062225,0.9785051,0,0)"><tspan sodipodi:role="line" id="tspan4860" x="379.80441" y="239.51218">IPServidorFTP:2040</tspan></text>
    <text xml:space="preserve" style="font-size:15px;font-style:normal;font-weight:normal;text-align:center;text-anchor:middle;fill:#008000;fill-opacity:1;stroke:none;stroke-width:1px;stroke-linecap:butt;stroke-linejoin:miter;stroke-opacity:1;font-family:Bitstream Vera Sans" x="166.24144" y="84.336578" id="text4876"><tspan sodipodi:role="line" x="168.62914" y="84.336578" id="tspan4878">Puerto </tspan><tspan sodipodi:role="line" x="168.62914" y="103.08658" id="tspan4880">de datos </tspan><tspan sodipodi:role="line" x="166.24144" y="121.83658" id="tspan4882">1036</tspan></text>
    <path style="fill:#d40000;fill-opacity:1;fill-rule:evenodd;stroke:#ff0000;stroke-width:2;stroke-linecap:butt;stroke-linejoin:miter;stroke-miterlimit:4;stroke-dasharray:none;stroke-opacity:1" d="M 485.23169,131.3921 L 485.23169,495.77326" id="path4884"/>
    <path style="fill:#d40000;fill-opacity:1;fill-rule:evenodd;stroke:#ff0000;stroke-width:2;stroke-linecap:butt;stroke-linejoin:miter;stroke-miterlimit:4;stroke-dasharray:none;stroke-opacity:1" d="M 303.21956,132.42626 L 303.21956,496.80741" id="path4886"/>
    <text xml:space="preserve" style="font-size:15px;font-style:normal;font-weight:normal;text-align:center;text-anchor:middle;fill:#008000;fill-opacity:1;stroke:none;stroke-width:1px;stroke-linecap:butt;stroke-linejoin:miter;stroke-opacity:1;font-family:Bitstream Vera Sans" x="728.82434" y="80.199936" id="text4890"><tspan sodipodi:role="line" x="731.21204" y="80.199936" id="tspan4892">Puerto </tspan><tspan sodipodi:role="line" x="731.21204" y="98.949936" id="tspan4894">de datos </tspan><tspan sodipodi:role="line" x="728.82434" y="117.69994" id="tspan4896">20</tspan></text>
    <text xml:space="preserve" style="font-size:14px;font-style:normal;font-weight:normal;fill:#000000;fill-opacity:1;stroke:none;stroke-width:1px;stroke-linecap:butt;stroke-linejoin:miter;stroke-opacity:1;font-family:Bitstream Vera Sans" x="511.93607" y="178.2049" id="text4936"><tspan sodipodi:role="line" x="511.93607" y="178.2049" id="tspan2949">Respuesta del </tspan><tspan sodipodi:role="line" x="511.93607" y="195.7049" id="tspan4941">servidor con un </tspan><tspan sodipodi:role="line" x="511.93607" y="213.2049" id="tspan4947">puerto &gt; 1023</tspan></text>
    <text xml:space="preserve" style="font-size:14px;font-style:normal;font-weight:normal;fill:#000000;fill-opacity:1;stroke:none;stroke-width:1px;stroke-linecap:butt;stroke-linejoin:miter;stroke-opacity:1;font-family:Bitstream Vera Sans" x="193.36656" y="161.89616" id="text4967"><tspan sodipodi:role="line" x="193.36656" y="161.89616" id="tspan4969">1.</tspan></text>
    <text xml:space="preserve" style="font-size:14px;font-style:normal;font-weight:normal;fill:#000000;fill-opacity:1;stroke:none;stroke-width:1px;stroke-linecap:butt;stroke-linejoin:miter;stroke-opacity:1;font-family:Bitstream Vera Sans" x="207.93773" y="162.14226" id="text4971"><tspan sodipodi:role="line" x="207.93773" y="162.14226" id="tspan4977">Mandar </tspan><tspan sodipodi:role="line" x="207.93773" y="179.64226" id="tspan4983">comando</tspan><tspan sodipodi:role="line" x="207.93773" y="197.14226" id="tspan4985">PASV</tspan></text>
    <text xml:space="preserve" style="font-size:14px;font-style:normal;font-weight:normal;fill:#000000;fill-opacity:1;stroke:none;stroke-width:1px;stroke-linecap:butt;stroke-linejoin:miter;stroke-opacity:1;font-family:Bitstream Vera Sans" x="13.225326" y="232.86269" id="text4987"><tspan sodipodi:role="line" x="13.225326" y="232.86269" id="tspan4989">3.</tspan></text>
    <text xml:space="preserve" style="font-size:14px;font-style:normal;font-weight:normal;fill:#000000;fill-opacity:1;stroke:none;stroke-width:1px;stroke-linecap:butt;stroke-linejoin:miter;stroke-opacity:1;font-family:Bitstream Vera Sans" x="27.796494" y="233.10878" id="text4991"><tspan sodipodi:role="line" x="27.796494" y="233.10878" id="tspan4997">Iniciar la conexion</tspan><tspan sodipodi:role="line" x="27.796494" y="250.60878" id="tspan5003">de datos desde el </tspan><tspan sodipodi:role="line" x="27.796494" y="268.10876" id="tspan5005">puerto 1036 a un </tspan><tspan sodipodi:role="line" x="27.796494" y="285.60876" id="tspan5007">puerto aleatorio </tspan><tspan sodipodi:role="line" x="27.796494" y="303.10876" id="tspan5009">del servidor</tspan></text>
    <text xml:space="preserve" style="font-size:14px;font-style:normal;font-weight:normal;fill:#000000;fill-opacity:1;stroke:none;stroke-width:1px;stroke-linecap:butt;stroke-linejoin:miter;stroke-opacity:1;font-family:Bitstream Vera Sans" x="644.55487" y="373.96198" id="text5011"><tspan sodipodi:role="line" x="644.55487" y="373.96198" id="tspan5013">4.</tspan></text>
    <text xml:space="preserve" style="font-size:14px;font-style:normal;font-weight:normal;fill:#000000;fill-opacity:1;stroke:none;stroke-width:1px;stroke-linecap:butt;stroke-linejoin:miter;stroke-opacity:1;font-family:Bitstream Vera Sans" x="659.12604" y="374.20807" id="text5015"><tspan sodipodi:role="line" x="659.12604" y="374.20807" id="tspan5021">Enviar </tspan><tspan sodipodi:role="line" x="659.12604" y="391.70807" id="tspan5028">comando</tspan><tspan sodipodi:role="line" x="659.12604" y="409.20807" id="tspan5030">ACK</tspan></text>
    <path style="fill:none;fill-rule:evenodd;stroke:#000000;stroke-width:2;stroke-linecap:butt;stroke-linejoin:miter;marker-end:url(#TriangleOutL);stroke-miterlimit:4;stroke-dasharray:none;stroke-opacity:1" d="M 484.17092,199.01068 L 312.85893,234.74714" id="path6357" sodipodi:nodetypes="cc"/>
    <path style="fill:none;fill-rule:evenodd;stroke:#000000;stroke-width:2;stroke-linecap:butt;stroke-linejoin:miter;marker-end:url(#TriangleOutL);stroke-miterlimit:4;stroke-dasharray:none;stroke-opacity:1" d="M 170.8138,260.43294 L 627.75809,357.91392" id="path6359" sodipodi:nodetypes="cc"/>
    <path style="fill:none;fill-rule:evenodd;stroke:#000000;stroke-width:2;stroke-linecap:butt;stroke-linejoin:miter;marker-end:url(#TriangleOutL);stroke-miterlimit:4;stroke-dasharray:none;stroke-opacity:1" d="M 637.55377,374.55445 L 178.58124,472.47453" id="path6361" sodipodi:nodetypes="cc"/>
  </g>
</svg>